# xmcd CD database file generated by Grip 3.2.0
# 
# Track frame offsets:
#       150
#       13393
#       26575
#       39400
#       55307
#       74938
#       90718
#       104662
#       118964
#       133155
#       146404
#       163419
#       178886
#       193672
#       205893
#       222301
#       234044
#       250351
#       266318
#       281071
#       294246
#       309898
#       323488
#       338363
# 
# Disc length: 4690 seconds
# 
# Revision: 1
# Processed by: cddbd v1.5.2PL0 Copyright (c) Steve Scherf et al.
# Submitted via: Grip 3.2.0
# 
DISCID=73125018
DTITLE=Various Artist - Larkin's Jazz - All What Jazz
DYEAR=2010
DGENRE=Jazz
TTITLE0=King Oliver's Jazz Band - Riverside Blues
TTITLE1=New Orleans Feetwarmers - Maple Leaf Rag
TTITLE2=Sidney Bechet and his New Orleans Feetwarmers - Old Man Blues
TTITLE3=Sidney Bechet and his New Orleans Feetwarmers - Nobody Knows The Way I
TTITLE3=Feel This Mornin'
TTITLE4=Sidney Bechet and his New Orleans Feetwarmers - Blue Horizon
TTITLE5=Louis Armstrong and his Hot Five - Savoy Blues
TTITLE6=Johnny Dodds' Black Bottom Stompers - Wild Man Blues
TTITLE7=Louis Armstrong and his Savoy Ballroom Five - Tight Like This
TTITLE8=Louis Armstrong and his Orchestra - Dallas Blues
TTITLE9=Louis Armstrong and his Orchestra - St.  Louis Blues
TTITLE10=Henry Allen and his Orchestra - Feelin' Drowsy
TTITLE11=Henry Allen and his Orchestra - Patrol Wagon Blues
TTITLE12=Luis Russell and his Orchestra - Feelin' The Spirit
TTITLE13=Fats Waller and his Rhythm - Serenade To A Wealthy Widow
TTITLE14=Fats Waller and his Rhythm - When Somebody Thinks You're Wonderful
TTITLE15=Fats Waller and his Buddies - Ridin' But Walkin'
TTITLE16=Eddie's Hot Shots - I'm Gonna Stomp Mr. Henry Lee
TTITLE17=Jelly Roll Morton and his Orchestra - Deep Creek
TTITLE18=Albert Ammons and his Rhythm Kings - Early Mornin' Blues
TTITLE19=Duke Ellington and his Kentucky Club Orchestra - East St.  Louis Toodl
TTITLE19=e-oo
TTITLE20=Duke Ellington and his Orchestra - Echoes Of The Jungle
TTITLE21=Duke Ellington and his Orchestra - In A Jam
TTITLE22=Duke Ellington and his Famous Orchestra - Jack The Bear
TTITLE23=Johnny Hodges and his Orchestra - That's The Blues Old Man
EXTD=YEAR: 2010
EXTT0=
EXTT1=
EXTT2=
EXTT3=
EXTT4=
EXTT5=
EXTT6=
EXTT7=
EXTT8=
EXTT9=
EXTT10=
EXTT11=
EXTT12=
EXTT13=
EXTT14=
EXTT15=
EXTT16=
EXTT17=
EXTT18=
EXTT19=
EXTT20=
EXTT21=
EXTT22=
EXTT23=
PLAYORDER=
